<svg width="32" height="32" viewBox="0 0 32 32" fill="none" xmlns="http://www.w3.org/2000/svg">
<path d="M16.0006 28.7613L4.68729 17.4479C3.18687 15.9477 2.34388 13.9129 2.34375 11.7911C2.34362 9.6693 3.18638 7.63436 4.68662 6.13394C6.18686 4.63353 8.2217 3.79053 10.3435 3.79041C12.4653 3.79028 14.5002 4.63304 16.0006 6.13328C17.5018 4.63473 19.5362 3.79308 21.6573 3.79308C23.7784 3.79308 25.8128 4.63473 27.314 6.13328C28.8119 7.63476 29.6531 9.66906 29.6531 11.7899C29.6531 13.9108 28.8119 15.9451 27.314 17.4466L16.0006 28.7613ZM10.3433 6.45728C9.28835 6.45724 8.25709 6.77006 7.37995 7.35618C6.50281 7.94229 5.8192 8.77537 5.41557 9.75004C5.01194 10.7247 4.90643 11.7972 5.11239 12.8318C5.31835 13.8665 5.82651 14.8168 6.57262 15.5626L16.0006 24.9906L25.4286 15.5626C25.9701 15.0332 26.3927 14.3944 26.6681 13.689C26.9436 12.9835 27.0657 12.2275 27.0262 11.4711C26.9867 10.7148 26.7866 9.97561 26.4392 9.30265C26.0918 8.62969 25.6051 8.03843 25.0114 7.56823C24.4177 7.09803 23.7306 6.75966 22.996 6.57564C22.2613 6.39162 21.4959 6.36617 20.7507 6.50099C20.0054 6.63581 19.2975 6.9278 18.6738 7.35753C18.0502 7.78726 17.5253 8.34488 17.134 8.99328L16.0006 10.8226L14.8673 8.99328C14.3994 8.21332 13.7358 7.56922 12.9423 7.12484C12.1487 6.68046 11.2528 6.45125 10.3433 6.45994V6.45728Z" fill="black"/>
</svg>
