<svg width="32" height="32" viewBox="0 0 32 32" fill="none" xmlns="http://www.w3.org/2000/svg">
<path d="M28 22.6666H26.3747L25.3333 18.5026V13.3333C25.3307 11.0908 24.5208 8.92428 23.0518 7.22999C21.5827 5.53571 19.5528 4.42698 17.3333 4.10663V2.66663H14.6667V4.10663C12.4472 4.42698 10.4173 5.53571 8.94824 7.22999C7.47921 8.92428 6.66929 11.0908 6.66667 13.3333V18.5026L5.62533 22.6666H4V25.3333H10.856C11.147 26.4767 11.8107 27.4906 12.7423 28.2148C13.6738 28.9389 14.8201 29.332 16 29.332C17.1799 29.332 18.3262 28.9389 19.2577 28.2148C20.1893 27.4906 20.853 26.4767 21.144 25.3333H28V22.6666ZM9.29333 18.9906L9.33333 13.3333C9.33333 11.5652 10.0357 9.86949 11.286 8.61925C12.5362 7.36901 14.2319 6.66663 16 6.66663C17.7681 6.66663 19.4638 7.36901 20.714 8.61925C21.9643 9.86949 22.6667 11.5652 22.6667 13.3333V18.6666L23.6373 22.6666H8.37467L9.29333 18.9906ZM16 26.6666C15.534 26.6652 15.0765 26.5413 14.6735 26.3073C14.2706 26.0732 13.9362 25.7373 13.704 25.3333H18.296C18.0638 25.7373 17.7294 26.0732 17.3265 26.3073C16.9235 26.5413 16.466 26.6652 16 26.6666Z" fill="black"/>
</svg>
