<svg width="271" height="42" viewBox="0 0 271 42" fill="none" xmlns="http://www.w3.org/2000/svg">
<g filter="url(#filter0_d_2524_6341)">
<path d="M4.264 34V0.399998H16.696C19.384 0.399998 21.608 0.847998 23.368 1.744C25.128 2.64 26.44 3.872 27.304 5.44C28.168 7.008 28.6 8.768 28.6 10.72C28.6 12.576 28.184 14.288 27.352 15.856C26.52 17.392 25.224 18.64 23.464 19.6C21.704 20.528 19.448 20.992 16.696 20.992H10.408V34H4.264ZM10.408 16H16.312C18.456 16 19.992 15.536 20.92 14.608C21.88 13.648 22.36 12.352 22.36 10.72C22.36 9.056 21.88 7.76 20.92 6.832C19.992 5.872 18.456 5.392 16.312 5.392H10.408V16ZM27.8909 34L40.1789 0.399998H47.0909L59.3789 34H52.8509L50.1629 26.224H37.0589L34.3229 34H27.8909ZM38.7389 21.424H48.4829L43.5869 7.456L38.7389 21.424ZM63.9471 34V0.399998H70.0911V34H63.9471ZM76.8434 34V0.399998H84.1394L94.8434 21.712L105.403 0.399998H112.699V34H106.555V10.816L97.1954 29.2H92.3474L82.9874 10.816V34H76.8434ZM117.298 34L129.586 0.399998H136.498L148.786 34H142.258L139.57 26.224H126.466L123.73 34H117.298ZM128.146 21.424H137.89L132.994 7.456L128.146 21.424ZM153.355 34V0.399998H165.691C168.379 0.399998 170.587 0.863998 172.315 1.792C174.075 2.688 175.387 3.92 176.251 5.488C177.115 7.024 177.547 8.736 177.547 10.624C177.547 12.672 177.003 14.544 175.915 16.24C174.859 17.936 173.195 19.168 170.923 19.936L177.883 34H170.827L164.587 20.752H159.499V34H153.355ZM159.499 16.24H165.307C167.355 16.24 168.859 15.744 169.819 14.752C170.779 13.76 171.259 12.448 171.259 10.816C171.259 9.216 170.779 7.936 169.819 6.976C168.891 6.016 167.371 5.536 165.259 5.536H159.499V16.24ZM183.501 34V0.399998H189.645V13.984L202.077 0.399998H209.661L197.277 13.744L209.997 34H202.461L192.861 18.448L189.645 21.952V34H183.501ZM214.444 34V0.399998H236.38V5.344H220.588V14.56H234.94V19.36H220.588V29.056H236.38V34H214.444ZM250.258 34V5.344H240.466V0.399998H266.242V5.344H256.402V34H250.258Z" fill="#11142D"/>
<path d="M4.264 34H3.264V35H4.264V34ZM4.264 0.399998V-0.600002H3.264V0.399998H4.264ZM27.352 15.856L28.2313 16.3323L28.2353 16.3247L27.352 15.856ZM23.464 19.6L23.9305 20.4847L23.9429 20.4779L23.464 19.6ZM10.408 20.992V19.992H9.408V20.992H10.408ZM10.408 34V35H11.408V34H10.408ZM10.408 16H9.408V17H10.408V16ZM20.92 14.608L21.6271 15.3151V15.3151L20.92 14.608ZM20.92 6.832L20.201 7.52702L20.2128 7.53921L20.225 7.55099L20.92 6.832ZM10.408 5.392V4.392H9.408V5.392H10.408ZM5.264 34V0.399998H3.264V34H5.264ZM4.264 1.4H16.696V-0.600002H4.264V1.4ZM16.696 1.4C19.2804 1.4 21.3362 1.83177 22.9143 2.63516L23.8217 0.852835C21.8798 -0.135771 19.4876 -0.600002 16.696 -0.600002V1.4ZM22.9143 2.63516C24.5151 3.45008 25.6707 4.54794 26.4282 5.9226L28.1798 4.95739C27.2093 3.19605 25.7409 1.82991 23.8217 0.852835L22.9143 2.63516ZM26.4282 5.9226C27.2035 7.32968 27.6 8.92113 27.6 10.72H29.6C29.6 8.61487 29.1325 6.68632 28.1798 4.95739L26.4282 5.9226ZM27.6 10.72C27.6 12.4203 27.2205 13.9703 26.4687 15.3873L28.2353 16.3247C29.1475 14.6057 29.6 12.7317 29.6 10.72H27.6ZM26.4727 15.3797C25.7456 16.722 24.6014 17.8405 22.9851 18.7221L23.9429 20.4779C25.8466 19.4395 27.2944 18.062 28.2313 16.3323L26.4727 15.3797ZM22.9976 18.7154C21.4258 19.5442 19.3445 19.992 16.696 19.992V21.992C19.5515 21.992 21.9822 21.5118 23.9304 20.4846L22.9976 18.7154ZM16.696 19.992H10.408V21.992H16.696V19.992ZM9.408 20.992V34H11.408V20.992H9.408ZM10.408 33H4.264V35H10.408V33ZM10.408 17H16.312V15H10.408V17ZM16.312 17C18.5609 17 20.4225 16.5197 21.6271 15.3151L20.2129 13.9009C19.5615 14.5523 18.3511 15 16.312 15V17ZM21.6271 15.3151C22.8116 14.1306 23.36 12.5599 23.36 10.72H21.36C21.36 12.1441 20.9484 13.1654 20.2129 13.9009L21.6271 15.3151ZM23.36 10.72C23.36 8.85587 22.8157 7.27362 21.615 6.11301L20.225 7.55099C20.9443 8.24637 21.36 9.25613 21.36 10.72H23.36ZM21.639 6.13697C20.4352 4.89173 18.5685 4.392 16.312 4.392V6.392C18.3435 6.392 19.5488 6.85227 20.201 7.52702L21.639 6.13697ZM16.312 4.392H10.408V6.392H16.312V4.392ZM9.408 5.392V16H11.408V5.392H9.408ZM27.8909 34L26.9517 33.6565L26.4604 35H27.8909V34ZM40.1789 0.399998V-0.600002H39.4798L39.2397 0.0565319L40.1789 0.399998ZM47.0909 0.399998L48.03 0.0565319L47.7899 -0.600002H47.0909V0.399998ZM59.3789 34V35H60.8094L60.318 33.6565L59.3789 34ZM52.8509 34L51.9058 34.3267L52.1385 35H52.8509V34ZM50.1629 26.224L51.108 25.8973L50.8753 25.224H50.1629V26.224ZM37.0589 26.224V25.224H36.3506L36.1156 25.8921L37.0589 26.224ZM34.3229 34V35H35.0311L35.2662 34.3319L34.3229 34ZM38.7389 21.424L37.7942 21.0961L37.3333 22.424H38.7389V21.424ZM48.4829 21.424V22.424H49.893L49.4266 21.0932L48.4829 21.424ZM43.5869 7.456L44.5306 7.12522L43.5822 4.41961L42.6422 7.12811L43.5869 7.456ZM28.83 34.3435L41.118 0.743464L39.2397 0.0565319L26.9517 33.6565L28.83 34.3435ZM40.1789 1.4H47.0909V-0.600002H40.1789V1.4ZM46.1517 0.743464L58.4397 34.3435L60.318 33.6565L48.03 0.0565319L46.1517 0.743464ZM59.3789 33H52.8509V35H59.3789V33ZM53.796 33.6733L51.108 25.8973L49.2178 26.5507L51.9058 34.3267L53.796 33.6733ZM50.1629 25.224H37.0589V27.224H50.1629V25.224ZM36.1156 25.8921L33.3796 33.6681L35.2662 34.3319L38.0022 26.5559L36.1156 25.8921ZM34.3229 33H27.8909V35H34.3229V33ZM38.7389 22.424H48.4829V20.424H38.7389V22.424ZM49.4266 21.0932L44.5306 7.12522L42.6432 7.78678L47.5392 21.7548L49.4266 21.0932ZM42.6422 7.12811L37.7942 21.0961L39.6836 21.7519L44.5316 7.78389L42.6422 7.12811ZM63.9471 34H62.9471V35H63.9471V34ZM63.9471 0.399998V-0.600002H62.9471V0.399998H63.9471ZM70.0911 0.399998H71.0911V-0.600002H70.0911V0.399998ZM70.0911 34V35H71.0911V34H70.0911ZM64.9471 34V0.399998H62.9471V34H64.9471ZM63.9471 1.4H70.0911V-0.600002H63.9471V1.4ZM69.0911 0.399998V34H71.0911V0.399998H69.0911ZM70.0911 33H63.9471V35H70.0911V33ZM76.8434 34H75.8434V35H76.8434V34ZM76.8434 0.399998V-0.600002H75.8434V0.399998H76.8434ZM84.1394 0.399998L85.033 -0.0488253L84.7562 -0.600002H84.1394V0.399998ZM94.8434 21.712L93.9498 22.1608L94.8494 23.9521L95.7394 22.156L94.8434 21.712ZM105.403 0.399998V-0.600002H104.783L104.507 -0.0439844L105.403 0.399998ZM112.699 0.399998H113.699V-0.600002H112.699V0.399998ZM112.699 34V35H113.699V34H112.699ZM106.555 34H105.555V35H106.555V34ZM106.555 10.816H107.555L105.664 10.3623L106.555 10.816ZM97.1954 29.2V30.2H97.8084L98.0865 29.6537L97.1954 29.2ZM92.3474 29.2L91.4562 29.6537L91.7344 30.2H92.3474V29.2ZM82.9874 10.816L83.8785 10.3623L81.9874 10.816H82.9874ZM82.9874 34V35H83.9874V34H82.9874ZM77.8434 34V0.399998H75.8434V34H77.8434ZM76.8434 1.4H84.1394V-0.600002H76.8434V1.4ZM83.2458 0.848821L93.9498 22.1608L95.737 21.2632L85.033 -0.0488253L83.2458 0.848821ZM95.7394 22.156L106.299 0.84398L104.507 -0.0439844L93.9473 21.268L95.7394 22.156ZM105.403 1.4H112.699V-0.600002H105.403V1.4ZM111.699 0.399998V34H113.699V0.399998H111.699ZM112.699 33H106.555V35H112.699V33ZM107.555 34V10.816H105.555V34H107.555ZM105.664 10.3623L96.3042 28.7463L98.0865 29.6537L107.447 11.2697L105.664 10.3623ZM97.1954 28.2H92.3474V30.2H97.1954V28.2ZM93.2385 28.7463L83.8785 10.3623L82.0962 11.2697L91.4562 29.6537L93.2385 28.7463ZM81.9874 10.816V34H83.9874V10.816H81.9874ZM82.9874 33H76.8434V35H82.9874V33ZM117.298 34L116.359 33.6565L115.868 35H117.298V34ZM129.586 0.399998V-0.600002H128.887L128.647 0.0565319L129.586 0.399998ZM136.498 0.399998L137.438 0.0565319L137.197 -0.600002H136.498V0.399998ZM148.786 34V35H150.217L149.726 33.6565L148.786 34ZM142.258 34L141.313 34.3267L141.546 35H142.258V34ZM139.57 26.224L140.516 25.8973L140.283 25.224H139.57V26.224ZM126.466 26.224V25.224H125.758L125.523 25.8921L126.466 26.224ZM123.73 34V35H124.439L124.674 34.3319L123.73 34ZM128.146 21.424L127.202 21.0961L126.741 22.424H128.146V21.424ZM137.89 21.424V22.424H139.301L138.834 21.0932L137.89 21.424ZM132.994 7.456L133.938 7.12522L132.99 4.41961L132.05 7.12811L132.994 7.456ZM118.238 34.3435L130.526 0.743464L128.647 0.0565319L116.359 33.6565L118.238 34.3435ZM129.586 1.4H136.498V-0.600002H129.586V1.4ZM135.559 0.743464L147.847 34.3435L149.726 33.6565L137.438 0.0565319L135.559 0.743464ZM148.786 33H142.258V35H148.786V33ZM143.204 33.6733L140.516 25.8973L138.625 26.5507L141.313 34.3267L143.204 33.6733ZM139.57 25.224H126.466V27.224H139.57V25.224ZM125.523 25.8921L122.787 33.6681L124.674 34.3319L127.41 26.5559L125.523 25.8921ZM123.73 33H117.298V35H123.73V33ZM128.146 22.424H137.89V20.424H128.146V22.424ZM138.834 21.0932L133.938 7.12522L132.051 7.78678L136.947 21.7548L138.834 21.0932ZM132.05 7.12811L127.202 21.0961L129.091 21.7519L133.939 7.78389L132.05 7.12811ZM153.355 34H152.355V35H153.355V34ZM153.355 0.399998V-0.600002H152.355V0.399998H153.355ZM172.315 1.792L171.841 2.67299L171.851 2.67819L171.861 2.68316L172.315 1.792ZM176.251 5.488L175.375 5.97062L175.379 5.97826L176.251 5.488ZM175.915 16.24L175.073 15.7L175.066 15.7114L175.915 16.24ZM170.923 19.936L170.602 18.9887L169.519 19.3548L170.026 20.3795L170.923 19.936ZM177.883 34V35H179.493L178.779 33.5565L177.883 34ZM170.827 34L169.922 34.4261L170.192 35H170.827V34ZM164.587 20.752L165.491 20.3259L165.221 19.752H164.587V20.752ZM159.499 20.752V19.752H158.499V20.752H159.499ZM159.499 34V35H160.499V34H159.499ZM159.499 16.24H158.499V17.24H159.499V16.24ZM169.819 14.752L169.1 14.0566L169.819 14.752ZM169.819 6.976L169.1 7.67102L169.106 7.67711L169.112 7.68311L169.819 6.976ZM159.499 5.536V4.536H158.499V5.536H159.499ZM154.355 34V0.399998H152.355V34H154.355ZM153.355 1.4H165.691V-0.600002H153.355V1.4ZM165.691 1.4C168.272 1.4 170.303 1.84667 171.841 2.67299L172.788 0.911006C170.87 -0.11867 168.486 -0.600002 165.691 -0.600002V1.4ZM171.861 2.68316C173.462 3.49809 174.617 4.59594 175.375 5.9706L177.126 5.00539C176.156 3.24405 174.688 1.87791 172.768 0.900837L171.861 2.68316ZM175.379 5.97826C176.153 7.35393 176.547 8.89509 176.547 10.624H178.547C178.547 8.57691 178.076 6.69407 177.122 4.99774L175.379 5.97826ZM176.547 10.624C176.547 12.4839 176.056 14.1679 175.073 15.7L176.756 16.78C177.949 14.9201 178.547 12.8601 178.547 10.624H176.547ZM175.066 15.7114C174.155 17.1734 172.701 18.2794 170.602 18.9887L171.243 20.8833C173.689 20.0566 175.562 18.6986 176.764 16.7686L175.066 15.7114ZM170.026 20.3795L176.986 34.4435L178.779 33.5565L171.819 19.4925L170.026 20.3795ZM177.883 33H170.827V35H177.883V33ZM171.731 33.5739L165.491 20.3259L163.682 21.1781L169.922 34.4261L171.731 33.5739ZM164.587 19.752H159.499V21.752H164.587V19.752ZM158.499 20.752V34H160.499V20.752H158.499ZM159.499 33H153.355V35H159.499V33ZM159.499 17.24H165.307V15.24H159.499V17.24ZM165.307 17.24C167.495 17.24 169.314 16.7114 170.537 15.4474L169.1 14.0566C168.403 14.7766 167.214 15.24 165.307 15.24V17.24ZM170.537 15.4474C171.71 14.2355 172.259 12.6569 172.259 10.816H170.259C170.259 12.2391 169.847 13.2845 169.1 14.0566L170.537 15.4474ZM172.259 10.816C172.259 9.00174 171.706 7.44963 170.526 6.26889L169.112 7.68311C169.851 8.42237 170.259 9.43025 170.259 10.816H172.259ZM170.538 6.28098C169.336 5.03812 167.488 4.536 165.259 4.536V6.536C167.253 6.536 168.445 6.99388 169.1 7.67102L170.538 6.28098ZM165.259 4.536H159.499V6.536H165.259V4.536ZM158.499 5.536V16.24H160.499V5.536H158.499ZM183.501 34H182.501V35H183.501V34ZM183.501 0.399998V-0.600002H182.501V0.399998H183.501ZM189.645 0.399998H190.645V-0.600002H189.645V0.399998ZM189.645 13.984H188.645V16.5578L190.383 14.6591L189.645 13.984ZM202.077 0.399998V-0.600002H201.637L201.339 -0.275137L202.077 0.399998ZM209.661 0.399998L210.394 1.08025L211.953 -0.600002H209.661V0.399998ZM197.277 13.744L196.544 13.0637L196.022 13.6261L196.43 14.2758L197.277 13.744ZM209.997 34V35H211.806L210.844 33.4682L209.997 34ZM202.461 34L201.61 34.5253L201.903 35H202.461V34ZM192.861 18.448L193.712 17.9227L193.018 16.7983L192.124 17.7718L192.861 18.448ZM189.645 21.952L188.908 21.2758L188.645 21.5627V21.952H189.645ZM189.645 34V35H190.645V34H189.645ZM184.501 34V0.399998H182.501V34H184.501ZM183.501 1.4H189.645V-0.600002H183.501V1.4ZM188.645 0.399998V13.984H190.645V0.399998H188.645ZM190.383 14.6591L202.815 1.07513L201.339 -0.275137L188.907 13.3089L190.383 14.6591ZM202.077 1.4H209.661V-0.600002H202.077V1.4ZM208.928 -0.280252L196.544 13.0637L198.01 14.4242L210.394 1.08025L208.928 -0.280252ZM196.43 14.2758L209.15 34.5318L210.844 33.4682L198.124 13.2122L196.43 14.2758ZM209.997 33H202.461V35H209.997V33ZM203.312 33.4747L193.712 17.9227L192.01 18.9733L201.61 34.5253L203.312 33.4747ZM192.124 17.7718L188.908 21.2758L190.382 22.6282L193.598 19.1242L192.124 17.7718ZM188.645 21.952V34H190.645V21.952H188.645ZM189.645 33H183.501V35H189.645V33ZM214.444 34H213.444V35H214.444V34ZM214.444 0.399998V-0.600002H213.444V0.399998H214.444ZM236.38 0.399998H237.38V-0.600002H236.38V0.399998ZM236.38 5.344V6.344H237.38V5.344H236.38ZM220.588 5.344V4.344H219.588V5.344H220.588ZM220.588 14.56H219.588V15.56H220.588V14.56ZM234.94 14.56H235.94V13.56H234.94V14.56ZM234.94 19.36V20.36H235.94V19.36H234.94ZM220.588 19.36V18.36H219.588V19.36H220.588ZM220.588 29.056H219.588V30.056H220.588V29.056ZM236.38 29.056H237.38V28.056H236.38V29.056ZM236.38 34V35H237.38V34H236.38ZM215.444 34V0.399998H213.444V34H215.444ZM214.444 1.4H236.38V-0.600002H214.444V1.4ZM235.38 0.399998V5.344H237.38V0.399998H235.38ZM236.38 4.344H220.588V6.344H236.38V4.344ZM219.588 5.344V14.56H221.588V5.344H219.588ZM220.588 15.56H234.94V13.56H220.588V15.56ZM233.94 14.56V19.36H235.94V14.56H233.94ZM234.94 18.36H220.588V20.36H234.94V18.36ZM219.588 19.36V29.056H221.588V19.36H219.588ZM220.588 30.056H236.38V28.056H220.588V30.056ZM235.38 29.056V34H237.38V29.056H235.38ZM236.38 33H214.444V35H236.38V33ZM250.258 34H249.258V35H250.258V34ZM250.258 5.344H251.258V4.344H250.258V5.344ZM240.466 5.344H239.466V6.344H240.466V5.344ZM240.466 0.399998V-0.600002H239.466V0.399998H240.466ZM266.242 0.399998H267.242V-0.600002H266.242V0.399998ZM266.242 5.344V6.344H267.242V5.344H266.242ZM256.402 5.344V4.344H255.402V5.344H256.402ZM256.402 34V35H257.402V34H256.402ZM251.258 34V5.344H249.258V34H251.258ZM250.258 4.344H240.466V6.344H250.258V4.344ZM241.466 5.344V0.399998H239.466V5.344H241.466ZM240.466 1.4H266.242V-0.600002H240.466V1.4ZM265.242 0.399998V5.344H267.242V0.399998H265.242ZM266.242 4.344H256.402V6.344H266.242V4.344ZM255.402 5.344V34H257.402V5.344H255.402ZM256.402 33H250.258V35H256.402V33Z" fill="#5F1E03"/>
</g>
<defs>
<filter id="filter0_d_2524_6341" x="0.263672" y="0.400391" width="269.979" height="41.5996" filterUnits="userSpaceOnUse" color-interpolation-filters="sRGB">
<feFlood flood-opacity="0" result="BackgroundImageFix"/>
<feColorMatrix in="SourceAlpha" type="matrix" values="0 0 0 0 0 0 0 0 0 0 0 0 0 0 0 0 0 0 127 0" result="hardAlpha"/>
<feOffset dy="4"/>
<feGaussianBlur stdDeviation="2"/>
<feComposite in2="hardAlpha" operator="out"/>
<feColorMatrix type="matrix" values="0 0 0 0 0 0 0 0 0 0 0 0 0 0 0 0 0 0 0.25 0"/>
<feBlend mode="normal" in2="BackgroundImageFix" result="effect1_dropShadow_2524_6341"/>
<feBlend mode="normal" in="SourceGraphic" in2="effect1_dropShadow_2524_6341" result="shape"/>
</filter>
</defs>
</svg>
