<svg width="34" height="36" viewBox="0 0 34 36" fill="none" xmlns="http://www.w3.org/2000/svg">
<g filter="url(#filter0_d_2537_1833)">
<path d="M16.9987 16C18.3172 16 19.6062 15.609 20.7025 14.8764C21.7988 14.1439 22.6533 13.1027 23.1579 11.8845C23.6625 10.6663 23.7945 9.3259 23.5373 8.03269C23.28 6.73949 22.6451 5.5516 21.7127 4.61925C20.7804 3.6869 19.5925 3.05196 18.2993 2.79473C17.0061 2.53749 15.6656 2.66951 14.4475 3.1741C13.2293 3.67868 12.1881 4.53317 11.4556 5.62949C10.723 6.72582 10.332 8.01475 10.332 9.3333C10.3341 11.1008 11.0372 12.7952 12.287 14.045C13.5368 15.2948 15.2312 15.9978 16.9987 16ZM16.9987 5.3333C17.7898 5.3333 18.5632 5.56789 19.221 6.00742C19.8788 6.44694 20.3915 7.07166 20.6942 7.80256C20.997 8.53347 21.0762 9.33773 20.9218 10.1137C20.7675 10.8896 20.3865 11.6023 19.8271 12.1617C19.2677 12.7211 18.555 13.1021 17.7791 13.2564C17.0031 13.4108 16.1989 13.3316 15.468 13.0288C14.7371 12.7261 14.1123 12.2134 13.6728 11.5556C13.2333 10.8978 12.9987 10.1244 12.9987 9.3333C12.9987 8.27243 13.4201 7.25501 14.1703 6.50487C14.9204 5.75472 15.9378 5.3333 16.9987 5.3333Z" fill="black"/>
<path d="M28.9805 26.4466C28.3999 23.7476 26.8729 21.3452 24.6755 19.6738C22.4781 18.0024 19.7553 17.1723 16.9991 17.3333C14.243 17.1723 11.5202 18.0024 9.32283 19.6738C7.12544 21.3452 5.59844 23.7476 5.01781 26.4466L4.75781 28H29.2405L28.9805 26.4466ZM8.12981 25.3333C8.98981 23.3 11.2658 20 16.9991 20C22.6805 20 24.9765 23.2973 25.8538 25.3333H8.12981Z" fill="black"/>
</g>
<defs>
<filter id="filter0_d_2537_1833" x="-3" y="0" width="40" height="40" filterUnits="userSpaceOnUse" color-interpolation-filters="sRGB">
<feFlood flood-opacity="0" result="BackgroundImageFix"/>
<feColorMatrix in="SourceAlpha" type="matrix" values="0 0 0 0 0 0 0 0 0 0 0 0 0 0 0 0 0 0 127 0" result="hardAlpha"/>
<feOffset dy="4"/>
<feGaussianBlur stdDeviation="2"/>
<feComposite in2="hardAlpha" operator="out"/>
<feColorMatrix type="matrix" values="0 0 0 0 0 0 0 0 0 0 0 0 0 0 0 0 0 0 0.25 0"/>
<feBlend mode="normal" in2="BackgroundImageFix" result="effect1_dropShadow_2537_1833"/>
<feBlend mode="normal" in="SourceGraphic" in2="effect1_dropShadow_2537_1833" result="shape"/>
</filter>
</defs>
</svg>
